# xmcd
#
# Track frame offsets:
#	183
#	12233
#	24833
#	38510
#	52455
#	63110
#	80653
#	96448
#	105845
#	118498
#	129255
#	139915
#	152225
#	168228
#	181825
#	199125
#
# Disc length: 2825 seconds
#
# Revision: 0
# Processed by: cddbd v1.5.2PL0 Copyright (c) Steve Scherf et al.
# Submitted via: EasyCDDAExtractor 8.1.2.3
#
DISCID=d20b0710
DTITLE=Various Artist - Country Collection Vol. 4
DYEAR=1968
DGENRE=country
TTITLE0=Tammy Wynette - Stand By Your Man
TTITLE1=George Jones - She Thinks I Still Care
TTITLE2=Tanya Tucker - I Still Sing The Old Song
TTITLE3=Johnny Paycheck - From Cotton To Satin
TTITLE4=Joe Stampley - Everyday I Have To Cry Some
TTITLE5=Bobby Bare - Februar Snow
TTITLE6=Larry Gatlin - Love Is Just A Game
TTITLE7=Marty Robbins - Tall Handsome Strangler
TTITLE8=Janie Fricke - What're You Doing Tonight
TTITLE9=Marty Robbins - I Don't Know Why (I Just Do )
TTITLE10=Johnny Cash - In The Jailhouse Now
TTITLE11=Johnny Duncan - Red Red Wine
TTITLE12=Lynn Anderson - Desperado
TTITLE13=Tammy Wynette and George Jones - Golden Ring
TTITLE14=Valerie Carter - Cowboy Angel
TTITLE15=Chalie Rich - I Takle It On Home
EXTD=
EXTT0=
EXTT1=
EXTT2=
EXTT3=
EXTT4=
EXTT5=
EXTT6=
EXTT7=
EXTT8=
EXTT9=
EXTT10=
EXTT11=
EXTT12=
EXTT13=
EXTT14=
EXTT15=
PLAYORDER=
